<svg width="26" height="27" viewBox="0 0 26 27" fill="none" xmlns="http://www.w3.org/2000/svg">
<path d="M8.69064 26.7141V26.085C8.35058 25.949 7.99351 25.7619 7.61944 25.5239C7.24537 25.2858 6.92231 25.0024 6.65026 24.6737C6.37821 24.3337 6.19117 23.9369 6.08915 23.4835C5.99847 23.0301 6.05515 22.5143 6.25918 21.9362L7.85749 17.7024L8.50361 15.9511L12.4143 5.5621L16.5461 15.9511L17.2433 17.7024L18.8926 21.8682C19.1306 22.4803 19.2496 23.0187 19.2496 23.4835C19.261 23.9482 19.1873 24.3507 19.0286 24.6907C18.8699 25.0194 18.6375 25.3028 18.3315 25.5409C18.0367 25.7676 17.7137 25.949 17.3623 26.085V26.7141H25.9999V26.085C25.6939 25.9603 25.3991 25.8016 25.1158 25.6089C24.8437 25.4162 24.5717 25.1611 24.2996 24.8437C24.0389 24.5264 23.7725 24.1296 23.5004 23.6535C23.2397 23.1661 22.9677 22.5823 22.6843 21.9022L13.9786 0.427124H12.7714L4.2358 21.9702C3.80505 23.0244 3.24961 23.9256 2.56949 24.6737C1.90069 25.4105 1.27157 25.8809 0.682129 26.085V26.7141H8.69064Z" fill="black"/>
</svg>
