<svg width="26" height="27" viewBox="0 0 26 27" fill="none" xmlns="http://www.w3.org/2000/svg">
<path d="M8.14621 26.6791V26.0499C7.80615 25.9139 7.44908 25.7269 7.07501 25.4888C6.70094 25.2508 6.37788 24.9674 6.10582 24.6387C5.83377 24.2986 5.64674 23.9019 5.54472 23.4485C5.45403 22.995 5.51071 22.4793 5.71475 21.9012L7.31305 17.6674L7.95918 15.916L11.8699 5.52706L16.0017 15.916L16.6988 17.6674L18.3481 21.8331C18.5862 22.4453 18.7052 22.9837 18.7052 23.4485C18.7165 23.9132 18.6429 24.3156 18.4842 24.6557C18.3255 24.9844 18.0931 25.2678 17.787 25.5058C17.4923 25.7326 17.1693 25.9139 16.8179 26.0499V26.6791H25.4555V26.0499C25.1494 25.9253 24.8547 25.7666 24.5713 25.5739C24.2993 25.3812 24.0272 25.1261 23.7552 24.8087C23.4944 24.4913 23.2281 24.0946 22.956 23.6185C22.6953 23.1311 22.4232 22.5473 22.1399 21.8672L13.4342 0.39209H12.227L3.69137 21.9352C3.26062 22.9894 2.70518 23.8905 2.02505 24.6387C1.35626 25.3755 0.72714 25.8459 0.137695 26.0499V26.6791H8.14621Z" fill="black"/>
</svg>
