<svg width="23" height="27" viewBox="0 0 23 27" fill="none" xmlns="http://www.w3.org/2000/svg">
<path d="M2.67762 2.70351C3.15371 3.34963 3.15705 3.79457 3.15705 4.61072V26.6956H5.35062V4.57671C5.35062 3.48851 5.85738 2.97556 6.40149 2.46547C6.94559 1.95537 7.79575 1.70032 8.95197 1.70032C10.6069 1.70032 12.0692 1.97804 13.3388 2.53348C14.6197 3.08892 15.4505 3.60753 16.3007 4.66173C17.1622 5.7046 17.814 6.99684 18.2561 8.53847C18.7095 10.0688 18.9362 11.8031 18.9362 13.7415C18.9362 15.7705 18.7208 17.4992 18.2901 18.9274C17.8707 20.3557 17.2415 21.5063 16.4027 22.3791C15.5752 23.2519 14.538 23.8867 13.2911 24.2834C12.0442 24.6802 11.6766 24.8786 10.0443 24.8786C8.86537 24.8786 7.9642 24.5725 7.34075 23.9604L7.06869 26.4429C7.89618 26.4882 8.67833 26.5109 9.41514 26.5109C11.3308 26.5109 12.1009 26.2728 13.8692 25.7967C15.6489 25.3093 17.2075 24.5442 18.5451 23.5013C19.894 22.4584 20.9709 21.0982 21.7757 19.4205C22.5919 17.7315 23 15.6968 23 13.3164C23 11.3213 22.6599 9.49065 21.9798 7.82433C21.311 6.14668 20.5708 4.99895 19.2899 3.80872C18.009 2.60716 16.4277 1.67198 14.546 1.00319C12.6643 0.334397 10.5333 0 8.15282 0C6.37315 0 5.16868 0.068013 3.76308 0.204039C2.36881 0.340064 2.00883 0.498761 0.739258 0.680129V1.30925C1.55541 1.59264 2.20153 2.05739 2.67762 2.70351Z" fill="black"/>
</svg>
