<svg width="25" height="27" viewBox="0 0 25 27" fill="none" xmlns="http://www.w3.org/2000/svg">
<path d="M21.876 5.48263V26.6856H21.2809L4.97483 4.87051V21.7717C4.97483 22.9166 5.22988 23.8801 5.73998 24.6623C6.26141 25.4444 6.9472 25.9092 7.79736 26.0565V26.6856H0.417969V26.0565C1.24546 25.9092 1.90858 25.4444 2.40734 24.6623C2.91744 23.8801 3.17249 22.9166 3.17249 21.7717V4.78549C3.17249 3.87866 2.93444 3.09651 2.45835 2.43905C1.9936 1.78159 1.35881 1.36785 0.553994 1.19781V0.568695H6.23307L20.0227 19.6463V5.48263C20.0227 4.32641 19.7733 3.35722 19.2745 2.57508C18.7758 1.79293 18.1183 1.33384 17.3022 1.19781V0.568695H24.3075V1.19781C23.5593 1.31117 22.9642 1.75892 22.5222 2.54107C22.0914 3.32322 21.876 4.30374 21.876 5.48263Z" fill="black"/>
</svg>
