<svg width="22" height="27" viewBox="0 0 22 27" fill="none" xmlns="http://www.w3.org/2000/svg">
<path d="M8.84167 26.6856V26.0565C8.04819 25.9205 7.40774 25.4954 6.92031 24.7813C6.44422 24.0558 6.20617 23.1716 6.20617 22.1288V5.12553C6.20617 4.04866 6.57458 3.22684 7.31138 2.66007C8.04819 2.08196 9.04571 1.7929 10.304 1.7929C11.2901 1.7929 12.2196 1.97427 13.0925 2.33701C13.9766 2.69974 14.7418 3.21551 15.3879 3.8843C16.0454 4.54176 16.5611 5.34091 16.9352 6.28175C17.3206 7.2226 17.5133 8.26546 17.5133 9.41035C17.5133 11.4961 16.8729 13.117 15.592 14.2733C14.3224 15.4181 12.4237 15.9906 9.89587 15.9906C9.34044 15.9906 8.75099 15.9623 8.12754 15.9056L8.41659 17.6059C9.1534 17.6966 9.73718 17.7419 10.1679 17.7419C11.6642 17.7419 13.0981 17.5606 14.4697 17.1978C15.8527 16.8237 17.0599 16.2626 18.0914 15.5145C19.1343 14.755 19.9674 13.8028 20.5909 12.658C21.2143 11.5017 21.5261 10.1528 21.5261 8.61119C21.5261 7.37563 21.2654 6.24208 20.7439 5.21055C20.2225 4.17902 19.497 3.30052 18.5675 2.57505C17.638 1.83825 16.5215 1.2658 15.2179 0.857726C13.9143 0.438313 12.486 0.228607 10.9331 0.228607C9.01737 0.228607 7.15269 0.290953 5.33901 0.415643C3.52533 0.540333 1.74566 0.704698 0 0.908736V1.53786C0.816154 1.66255 1.46228 2.07062 1.93837 2.76209C2.41446 3.44222 2.6525 4.29238 2.6525 5.31257V22.1288C2.6525 23.2056 2.41446 24.1068 1.93837 24.8323C1.46228 25.5464 0.816154 25.9545 0 26.0565V26.6856H8.84167Z" fill="black"/>
</svg>
