<svg width="159" height="94" viewBox="0 0 159 94" fill="none" xmlns="http://www.w3.org/2000/svg">
<path d="M50.5324 163.833V159.921C48.4179 159.076 46.1977 157.913 43.8717 156.432C41.5457 154.952 39.5369 153.19 37.8453 151.146C36.1537 149.032 34.9907 146.565 34.3563 143.745C33.7924 140.926 34.1449 137.719 35.4136 134.124L45.3518 107.798L49.3694 96.9085L73.6865 32.3097L99.378 96.9085L103.713 107.798L113.968 133.701C115.448 137.507 116.188 140.855 116.188 143.745C116.259 146.635 115.801 149.137 114.814 151.252C113.827 153.296 112.382 155.058 110.479 156.538C108.647 157.948 106.638 159.076 104.453 159.921V163.833H158.162V159.921C156.259 159.146 154.426 158.159 152.664 156.961C150.972 155.763 149.281 154.177 147.589 152.203C145.968 150.23 144.312 147.763 142.62 144.803C140.999 141.772 139.307 138.142 137.545 133.913L83.4133 0.380371H75.9067L22.8321 134.336C20.1537 140.891 16.7 146.494 12.471 151.146C8.3124 155.728 4.40053 158.653 0.735352 159.921V163.833H50.5324Z" fill="white"/>
</svg>
