<svg width="159" height="94" viewBox="0 0 159 94" fill="none" xmlns="http://www.w3.org/2000/svg">
<path d="M50.5778 163.615V159.704C48.4633 158.858 46.2431 157.695 43.9171 156.215C41.5911 154.734 39.5823 152.972 37.8907 150.928C36.1991 148.814 35.0361 146.347 34.4017 143.527C33.8378 140.708 34.1903 137.501 35.459 133.906L45.3973 107.581L49.4149 96.6907L73.7319 32.0919L99.4234 96.6907L103.758 107.581L114.014 133.483C115.494 137.29 116.234 140.638 116.234 143.527C116.304 146.417 115.846 148.919 114.859 151.034C113.873 153.078 112.428 154.84 110.525 156.32C108.692 157.73 106.683 158.858 104.498 159.704V163.615H158.207V159.704C156.304 158.928 154.472 157.941 152.709 156.743C151.018 155.545 149.326 153.959 147.635 151.986C146.013 150.012 144.357 147.545 142.665 144.585C141.044 141.554 139.353 137.924 137.591 133.695L83.4587 0.162598H75.9521L22.8776 134.118C20.1992 140.673 16.7454 146.276 12.5164 150.928C8.35781 155.51 4.44594 158.435 0.780762 159.704V163.615H50.5778Z" fill="white"/>
</svg>
