<svg width="139" height="97" viewBox="0 0 139 97" fill="none" xmlns="http://www.w3.org/2000/svg">
<path d="M12.3458 17.5351C15.3061 21.5527 15.3268 24.3193 15.3268 29.3941V166.718H28.9665V29.1827C28.9665 22.4162 32.1176 19.2267 35.5008 16.0549C38.884 12.8831 44.1703 11.2972 51.3597 11.2972C61.6504 11.2972 70.7429 13.0241 78.6371 16.4778C86.6018 19.9316 91.7679 23.1563 97.0542 29.7113C102.411 36.1959 106.464 44.2311 109.213 53.8169C112.032 63.3323 113.442 74.1164 113.442 86.1692C113.442 98.7859 112.103 109.535 109.424 118.416C106.816 127.297 102.904 134.451 97.6886 139.878C92.5432 145.305 86.0939 149.253 78.3407 151.719C70.5874 154.186 68.3013 155.42 58.1516 155.42C50.8213 155.42 45.2178 153.517 41.3411 149.711L39.6495 165.147C44.7948 165.429 49.6583 165.57 54.2397 165.57C66.1516 165.57 70.9398 164.089 81.9353 161.129C93.0014 158.098 102.693 153.341 111.01 146.856C119.398 140.372 126.094 131.913 131.098 121.482C136.173 110.98 138.71 98.3277 138.71 83.526C138.71 71.1208 136.596 59.7376 132.367 49.3764C128.208 38.9448 123.606 31.8081 115.641 24.4073C107.677 16.936 97.8441 11.121 86.1437 6.96246C74.4433 2.80389 61.1923 0.724609 46.3906 0.724609C35.3246 0.724609 27.8352 1.14752 19.0951 1.99333C10.4256 2.83914 8.1872 3.82592 0.292969 4.95366V8.86553C5.36783 10.6276 9.38543 13.5175 12.3458 17.5351Z" fill="white"/>
</svg>
