<svg width="150" height="93" viewBox="0 0 150 93" fill="none" xmlns="http://www.w3.org/2000/svg">
<path d="M134.054 30.8152V162.656H130.354L28.9621 27.009V132.101C28.9621 139.22 30.548 145.211 33.7198 150.074C36.962 154.938 41.2263 157.828 46.5126 158.744V162.656H0.627441V158.744C5.77279 157.828 9.89611 154.938 12.9974 150.074C16.1692 145.211 17.7551 139.22 17.7551 132.101V26.4804C17.7551 20.8416 16.2749 15.9782 13.3146 11.8901C10.4247 7.80206 6.47763 5.22939 1.47325 4.17213V0.260254H36.7858L122.53 118.885V30.8152C122.53 23.6258 120.979 17.5994 117.878 12.736C114.777 7.87255 110.689 5.01794 105.614 4.17213V0.260254H149.173V4.17213C144.521 4.87697 140.821 7.6611 138.072 12.5245C135.393 17.3879 134.054 23.4848 134.054 30.8152Z" fill="white"/>
</svg>
