<svg width="134" height="95" viewBox="0 0 134 95" fill="none" xmlns="http://www.w3.org/2000/svg">
<path d="M54.9777 164.657V160.745C50.0438 159.899 46.0614 157.256 43.0306 152.815C40.0703 148.304 38.5901 142.806 38.5901 136.322V30.5957C38.5901 23.8997 40.8808 18.7896 45.4623 15.2653C50.0438 11.6706 56.2464 9.8733 64.0701 9.8733C70.2022 9.8733 75.9819 11.0011 81.4092 13.2565C86.907 15.512 91.6647 18.7191 95.6823 22.8776C99.7704 26.9657 102.977 31.9349 105.303 37.785C107.7 43.6352 108.898 50.1198 108.898 57.2387C108.898 70.2078 104.916 80.287 96.951 87.4764C89.0568 94.5953 77.2507 98.1547 61.5327 98.1547C58.079 98.1547 54.4138 97.9785 50.5372 97.6261L52.3345 108.199C56.916 108.763 60.5459 109.045 63.2243 109.045C72.5282 109.045 81.4445 107.917 89.9731 105.661C98.5721 103.335 106.079 99.8464 112.493 95.1944C118.977 90.472 124.158 84.5513 128.035 77.4324C131.911 70.243 133.849 61.8554 133.849 52.2695C133.849 44.5868 132.228 37.5383 128.986 31.1243C125.744 24.7102 121.233 19.2477 115.453 14.7367C109.673 10.1552 102.731 6.59579 94.625 4.05836C86.5193 1.45044 77.6383 0.146484 67.982 0.146484C56.0702 0.146484 44.4755 0.53415 33.1981 1.30948C21.9206 2.0848 10.8546 3.10682 0 4.37554V8.28741C5.07486 9.06274 9.09246 11.6002 12.0528 15.8997C15.0131 20.1288 16.4933 25.4151 16.4933 31.7586V136.322C16.4933 143.018 15.0131 148.621 12.0528 153.132C9.09246 157.573 5.07486 160.11 0 160.745V164.657H54.9777Z" fill="white"/>
</svg>
