<svg width="25" height="27" viewBox="0 0 25 27" fill="none" xmlns="http://www.w3.org/2000/svg">
<path d="M21.8758 5.48263V26.6856H21.2807L4.97459 4.87051V21.7717C4.97459 22.9166 5.22963 23.8801 5.73973 24.6623C6.26116 25.4444 6.94696 25.9092 7.79712 26.0565V26.6856H0.417725V26.0565C1.24521 25.9092 1.90834 25.4444 2.4071 24.6623C2.9172 23.8801 3.17225 22.9166 3.17225 21.7717V4.78549C3.17225 3.87866 2.9342 3.09651 2.45811 2.43905C1.99336 1.78159 1.35857 1.36785 0.55375 1.19781V0.568695H6.23282L20.0224 19.6463V5.48263C20.0224 4.32641 19.7731 3.35722 19.2743 2.57508C18.7755 1.79293 18.1181 1.33384 17.3019 1.19781V0.568695H24.3072V1.19781C23.5591 1.31117 22.964 1.75892 22.5219 2.54107C22.0912 3.32322 21.8758 4.30374 21.8758 5.48263Z" fill="white"/>
</svg>
